<svg xmlns="http://www.w3.org/2000/svg" width="1120" height="1010" viewBox="0 0 1120 1010" font-family="ui-sans-serif,system-ui,Arial,sans-serif"><rect x="0" y="0" width="1120" height="1010" fill="#ffffff"/><metadata data-conns="CAP/C|COMP/R;CAP/FAN|OFM/1;COMP/S|CAP/HERM;CONT/COIL2|XFMR/C;CONT/LOAD1|COMP/C;CONT/LOAD2|COMP/R;L/L1|CONT/L1;L/L2|CONT/L2;OFM/2|CONT/LOAD2;XFMR/R|CONT/COIL1"></metadata><rect x="24" y="132" width="1072" height="368" rx="14" fill="#fdf4f3"/><rect x="24" y="516" width="1072" height="238" rx="14" fill="#f0f8f6"/><text x="40" y="34" font-size="21" font-weight="800" fill="#0b0d10">CARRIER:24ABB3 — how it’s wired</text><text x="40" y="53" font-size="12.5" fill="#7a8390">Apprentice view · the real parts &amp; the real wire colors landing on the real terminals — every wire traced</text><text x="1080" y="156" text-anchor="end" font-size="13" font-weight="800" fill="#d92b1c">LINE VOLTAGE — 240V</text><text x="1080" y="540" text-anchor="end" font-size="13" font-weight="800" fill="#0f8a7e">CONTROL — 24V</text><path d="M 162.0 232.0 L 180.0 232.0 L 150.0 232.0 L 150.0 232.0 L 192.0 232.0 L 210.0 232.0" fill="none" stroke="#ffffff" stroke-width="7" opacity="0.95" stroke-linejoin="round" stroke-linecap="round"/><path data-conn="L/L1|CONT/L1" d="M 162.0 232.0 L 180.0 232.0 L 150.0 232.0 L 150.0 232.0 L 192.0 232.0 L 210.0 232.0" fill="none" stroke="#1c1f26" stroke-width="3.4" stroke-linejoin="round" stroke-linecap="round"/><circle cx="162.0" cy="232.0" r="2.8" fill="#1c1f26"/><circle cx="210.0" cy="232.0" r="2.8" fill="#1c1f26"/><path d="M 162.0 262.0 L 184.0 262.0 L 159.0 262.0 L 159.0 262.0 L 188.0 262.0 L 210.0 262.0" fill="none" stroke="#ffffff" stroke-width="7" opacity="0.95" stroke-linejoin="round" stroke-linecap="round"/><path data-conn="L/L2|CONT/L2" d="M 162.0 262.0 L 184.0 262.0 L 159.0 262.0 L 159.0 262.0 L 188.0 262.0 L 210.0 262.0" fill="none" stroke="#1c1f26" stroke-width="3.4" stroke-linejoin="round" stroke-linecap="round"/><circle cx="162.0" cy="262.0" r="2.8" fill="#1c1f26"/><circle cx="210.0" cy="262.0" r="2.8" fill="#1c1f26"/><path d="M 398.0 232.0 L 424.0 232.0 L 546.5 232.0 L 546.5 204.0 L 873.0 204.0 L 899.0 204.0" fill="none" stroke="#ffffff" stroke-width="7" opacity="0.95" stroke-linejoin="round" stroke-linecap="round"/><path data-conn="CONT/LOAD1|COMP/C" d="M 398.0 232.0 L 424.0 232.0 L 546.5 232.0 L 546.5 204.0 L 873.0 204.0 L 899.0 204.0" fill="none" stroke="#1c1f26" stroke-width="3.4" stroke-linejoin="round" stroke-linecap="round"/><circle cx="398.0" cy="232.0" r="2.8" fill="#1c1f26"/><circle cx="899.0" cy="204.0" r="2.8" fill="#1c1f26"/><path d="M 398.0 257.5 L 416.0 257.5 L 585.1 257.5 L 585.1 219.5 L 881.0 219.5 L 899.0 219.5" fill="none" stroke="#ffffff" stroke-width="7" opacity="0.95" stroke-linejoin="round" stroke-linecap="round"/><path data-conn="CONT/LOAD2|COMP/R" d="M 398.0 257.5 L 416.0 257.5 L 585.1 257.5 L 585.1 219.5 L 881.0 219.5 L 899.0 219.5" fill="none" stroke="#e6b400" stroke-width="3.4" stroke-linejoin="round" stroke-linecap="round"/><circle cx="398.0" cy="257.5" r="2.8" fill="#e6b400"/><circle cx="899.0" cy="219.5" r="2.8" fill="#e6b400"/><path d="M 623.0 255.0 L 623.0 233.0 L 738.5 233.0 L 738.5 228.5 L 877.0 228.5 L 899.0 228.5" fill="none" stroke="#ffffff" stroke-width="7" opacity="0.95" stroke-linejoin="round" stroke-linecap="round"/><path data-conn="CAP/C|COMP/R" d="M 623.0 255.0 L 623.0 233.0 L 738.5 233.0 L 738.5 228.5 L 877.0 228.5 L 899.0 228.5" fill="none" stroke="#e6b400" stroke-width="3.4" stroke-linejoin="round" stroke-linecap="round"/><circle cx="623.0" cy="255.0" r="2.8" fill="#e6b400"/><circle cx="899.0" cy="228.5" r="2.8" fill="#e6b400"/><path d="M 899.0 244.0 L 873.0 244.0 L 745.0 244.0 L 745.0 229.0 L 591.5 229.0 L 591.5 255.0" fill="none" stroke="#ffffff" stroke-width="7" opacity="0.95" stroke-linejoin="round" stroke-linecap="round"/><path data-conn="COMP/S|CAP/HERM" d="M 899.0 244.0 L 873.0 244.0 L 745.0 244.0 L 745.0 229.0 L 591.5 229.0 L 591.5 255.0" fill="none" stroke="#2b6cd4" stroke-width="3.4" stroke-linejoin="round" stroke-linecap="round"/><circle cx="899.0" cy="244.0" r="2.8" fill="#2b6cd4"/><circle cx="591.5" cy="255.0" r="2.8" fill="#2b6cd4"/><path d="M 654.5 255.0 L 654.5 237.0 L 801.2 237.0 L 801.2 396.0 L 885.0 396.0 L 903.0 396.0" fill="none" stroke="#ffffff" stroke-width="7" opacity="0.95" stroke-linejoin="round" stroke-linecap="round"/><path data-conn="CAP/FAN|OFM/1" d="M 654.5 255.0 L 654.5 237.0 L 801.2 237.0 L 801.2 396.0 L 885.0 396.0 L 903.0 396.0" fill="none" stroke="#7a4a1e" stroke-width="3.4" stroke-linejoin="round" stroke-linecap="round"/><circle cx="654.5" cy="255.0" r="2.8" fill="#7a4a1e"/><circle cx="903.0" cy="396.0" r="2.8" fill="#7a4a1e"/><path d="M 903.0 416.0 L 881.0 416.0 L 755.3 416.0 L 755.3 266.5 L 420.0 266.5 L 398.0 266.5" fill="none" stroke="#ffffff" stroke-width="7" opacity="0.95" stroke-linejoin="round" stroke-linecap="round"/><path data-conn="OFM/2|CONT/LOAD2" d="M 903.0 416.0 L 881.0 416.0 L 755.3 416.0 L 755.3 266.5 L 420.0 266.5 L 398.0 266.5" fill="none" stroke="#e6b400" stroke-width="3.4" stroke-linejoin="round" stroke-linecap="round"/><circle cx="903.0" cy="416.0" r="2.8" fill="#e6b400"/><circle cx="398.0" cy="266.5" r="2.8" fill="#e6b400"/><path d="M 274.0 566.0 L 274.0 540.0 L 306.0 540.0 L 306.0 340.0 L 266.0 340.0 L 266.0 314.0" fill="none" stroke="#ffffff" stroke-width="7" opacity="0.95" stroke-linejoin="round" stroke-linecap="round"/><path data-conn="XFMR/R|CONT/COIL1" d="M 274.0 566.0 L 274.0 540.0 L 306.0 540.0 L 306.0 340.0 L 266.0 340.0 L 266.0 314.0" fill="none" stroke="#e6b400" stroke-width="3.4" stroke-linejoin="round" stroke-linecap="round"/><circle cx="274.0" cy="566.0" r="2.8" fill="#e6b400"/><circle cx="266.0" cy="314.0" r="2.8" fill="#e6b400"/><path d="M 338.0 314.0 L 338.0 332.0 L 306.0 332.0 L 306.0 548.0 L 346.0 548.0 L 346.0 566.0" fill="none" stroke="#ffffff" stroke-width="7" opacity="0.95" stroke-linejoin="round" stroke-linecap="round"/><path data-conn="CONT/COIL2|XFMR/C" d="M 338.0 314.0 L 338.0 332.0 L 306.0 332.0 L 306.0 548.0 L 346.0 548.0 L 346.0 566.0" fill="none" stroke="#2b6cd4" stroke-width="3.4" stroke-linejoin="round" stroke-linecap="round"/><circle cx="338.0" cy="314.0" r="2.8" fill="#2b6cd4"/><circle cx="346.0" cy="566.0" r="2.8" fill="#2b6cd4"/><line x1="398.0" y1="257.5" x2="398.0" y2="266.5" stroke="#11141a" stroke-width="2"/><circle cx="398.0" cy="262.0" r="4.5" fill="#11141a"/><line x1="899.0" y1="219.5" x2="899.0" y2="228.5" stroke="#11141a" stroke-width="2"/><circle cx="899.0" cy="224.0" r="4.5" fill="#11141a"/><g data-part="L"><rect x="44.0" y="170.0" width="118" height="104" rx="8" fill="#4a5058" stroke="#11141a" stroke-width="2.2"/><rect x="54.0" y="182.0" width="98" height="26" rx="3" fill="#2b2f37"/><rect x="94.0" y="186.0" width="18" height="18" rx="2" fill="#c9ced6" stroke="#11141a" stroke-width="1.4"/><text x="103.0" y="228.0" text-anchor="middle" font-size="13" font-weight="800" fill="#fff">DISCONNECT</text><text x="103.0" y="244.0" text-anchor="middle" font-size="9" fill="#c9ced6">pull to kill power</text><text x="103.0" y="160.0" text-anchor="middle" font-size="10" font-weight="700" fill="#0b0d10">240V from panel</text><line x1="89.0" y1="170.0" x2="89.0" y2="164.0" stroke="#d92b1c" stroke-width="3"/><line x1="117.0" y1="170.0" x2="117.0" y2="164.0" stroke="#d92b1c" stroke-width="3"/><circle cx="162.0" cy="232.0" r="7.5" fill="#c9ced6" stroke="#11141a" stroke-width="1.6"/><line x1="158.0" y1="232.0" x2="166.0" y2="232.0" stroke="#11141a" stroke-width="1.4"/><circle cx="162.0" cy="262.0" r="7.5" fill="#c9ced6" stroke="#11141a" stroke-width="1.6"/><line x1="158.0" y1="262.0" x2="166.0" y2="262.0" stroke="#11141a" stroke-width="1.4"/></g><g data-part="CONT"><rect x="210.0" y="150.0" width="188" height="164" rx="12" fill="#23262d" stroke="#0c0e12" stroke-width="2"/><rect x="213.0" y="153.0" width="182" height="158" rx="10" fill="none" stroke="#3a3f47" stroke-width="1"/><rect x="240.0" y="158.0" width="128" height="16" rx="4" fill="#8b929c" stroke="#5b616b" stroke-width="1"/><rect x="290.0" y="161.0" width="28" height="10" rx="3" fill="#c9ced6"/><text x="304.0" y="192.0" text-anchor="middle" font-size="15" font-weight="800" fill="#e8ecf2">CONTACTOR</text><text x="304.0" y="205.0" text-anchor="middle" font-size="8.5" fill="#9aa3b2">single-pole · 240V power switch</text><text x="222.0" y="220.0" font-size="8" font-weight="700" fill="#8b929c">LINE</text><text x="386.0" y="220.0" text-anchor="end" font-size="8" font-weight="700" fill="#8b929c">LOAD</text><line x1="216.0" y1="232.0" x2="280.0" y2="232.0" stroke="#e8ecf2" stroke-width="2.6" stroke-linecap="round"/><circle cx="280.0" cy="232.0" r="3.2" fill="#e8ecf2"/><line x1="280.0" y1="232.0" x2="300.0" y2="220.0" stroke="#e8ecf2" stroke-width="2.6" stroke-linecap="round"/><circle cx="304.0" cy="232.0" r="3.2" fill="#e8ecf2"/><line x1="304.0" y1="232.0" x2="392.0" y2="232.0" stroke="#e8ecf2" stroke-width="2.6" stroke-linecap="round"/><text x="304.0" y="216.0" text-anchor="middle" font-size="7.5" fill="#9aa3b2">switched</text><line x1="216.0" y1="262.0" x2="392.0" y2="262.0" stroke="#e8ecf2" stroke-width="2.6" stroke-linecap="round"/><text x="304.0" y="274.0" text-anchor="middle" font-size="7.5" fill="#e0a24a">always hot (unswitched leg)</text><rect x="246.0" y="276.0" width="116" height="26" rx="6" fill="#0f8a7e" fill-opacity="0.20" stroke="#0f8a7e" stroke-width="1.5"/><text x="304.0" y="292.0" text-anchor="middle" font-size="9.5" font-weight="800" fill="#0f8a7e">24V COIL</text><path d="M 266.0 310.0 Q 272.0 306.0 278.0 310.0 Q 284.0 306.0 290.0 310.0 Q 296.0 306.0 302.0 310.0 Q 308.0 306.0 314.0 310.0 Q 320.0 306.0 326.0 310.0 Q 332.0 306.0 338.0 310.0" fill="none" stroke="#0f8a7e" stroke-width="1.8" opacity="0.7"/><line x1="292.0" y1="235.0" x2="304.0" y2="276.0" stroke="#0f8a7e" stroke-width="1.3" stroke-dasharray="3 3" opacity="0.8"/><circle cx="210.0" cy="232.0" r="7.5" fill="#c9ced6" stroke="#11141a" stroke-width="1.6"/><line x1="206.0" y1="232.0" x2="214.0" y2="232.0" stroke="#11141a" stroke-width="1.4"/><text x="196.0" y="236.0" text-anchor="middle" font-size="11" font-weight="700" fill="#0b0d10">L1</text><circle cx="210.0" cy="262.0" r="7.5" fill="#c9ced6" stroke="#11141a" stroke-width="1.6"/><line x1="206.0" y1="262.0" x2="214.0" y2="262.0" stroke="#11141a" stroke-width="1.4"/><text x="196.0" y="266.0" text-anchor="middle" font-size="11" font-weight="700" fill="#0b0d10">L2</text><circle cx="398.0" cy="232.0" r="7.5" fill="#c9ced6" stroke="#11141a" stroke-width="1.6"/><line x1="394.0" y1="232.0" x2="402.0" y2="232.0" stroke="#11141a" stroke-width="1.4"/><text x="412.0" y="236.0" text-anchor="middle" font-size="11" font-weight="700" fill="#0b0d10">T1</text><circle cx="398.0" cy="262.0" r="7.5" fill="#c9ced6" stroke="#11141a" stroke-width="1.6"/><line x1="394.0" y1="262.0" x2="402.0" y2="262.0" stroke="#11141a" stroke-width="1.4"/><text x="412.0" y="266.0" text-anchor="middle" font-size="11" font-weight="700" fill="#0b0d10">T2</text><rect x="259.0" y="306.0" width="14" height="16" rx="2" fill="#b9bfc9" stroke="#11141a" stroke-width="1.4"/><text x="266.0" y="331.0" text-anchor="middle" font-size="8.5" font-weight="700" fill="#0b0d10">24V</text><rect x="331.0" y="306.0" width="14" height="16" rx="2" fill="#b9bfc9" stroke="#11141a" stroke-width="1.4"/><text x="338.0" y="331.0" text-anchor="middle" font-size="8.5" font-weight="700" fill="#0b0d10">24V</text></g><g data-part="COMP"><circle cx="954.0" cy="224.0" r="54" fill="#3a3f47" stroke="#11141a" stroke-width="2.6"/><circle cx="954.0" cy="224.0" r="46" fill="none" stroke="#565c66" stroke-width="1.5"/><text x="954.0" y="218.0" text-anchor="middle" font-size="16" font-weight="800" fill="#e8ecf2">COMP</text><text x="954.0" y="235.0" text-anchor="middle" font-size="10" fill="#9aa3b2">compressor</text><circle cx="899.0" cy="204.0" r="5.5" fill="#c9ced6" stroke="#11141a" stroke-width="1.5"/><text x="886.0" y="208.0" text-anchor="middle" font-size="11" font-weight="700" fill="#0b0d10">C</text><circle cx="899.0" cy="224.0" r="5.5" fill="#c9ced6" stroke="#11141a" stroke-width="1.5"/><text x="886.0" y="228.0" text-anchor="middle" font-size="11" font-weight="700" fill="#0b0d10">R</text><circle cx="899.0" cy="244.0" r="5.5" fill="#c9ced6" stroke="#11141a" stroke-width="1.5"/><text x="886.0" y="248.0" text-anchor="middle" font-size="11" font-weight="700" fill="#0b0d10">S</text></g><g data-part="CAP"><rect x="560.0" y="270.0" width="126" height="98" rx="30" fill="#eef1f5" stroke="#11141a" stroke-width="2.2"/><text x="623.0" y="354.0" text-anchor="middle" font-size="12" font-weight="800" fill="#0b0d10">DUAL RUN CAP</text><rect x="584.5" y="255.0" width="14" height="16" rx="2" fill="#b9bfc9" stroke="#11141a" stroke-width="1.4"/><text x="591.5" y="235.0" text-anchor="middle" font-size="11" font-weight="700" fill="#0b0d10">HERM</text><rect x="616.0" y="255.0" width="14" height="16" rx="2" fill="#b9bfc9" stroke="#11141a" stroke-width="1.4"/><text x="623.0" y="235.0" text-anchor="middle" font-size="11" font-weight="700" fill="#0b0d10">C</text><rect x="647.5" y="255.0" width="14" height="16" rx="2" fill="#b9bfc9" stroke="#11141a" stroke-width="1.4"/><text x="654.5" y="235.0" text-anchor="middle" font-size="11" font-weight="700" fill="#0b0d10">FAN</text></g><g data-part="OFM"><circle cx="952.0" cy="408.0" r="48" fill="#eef1f5" stroke="#11141a" stroke-width="2.3"/><path d="M 952.0 408.0 Q 981.5 424.1 988.0 408.0 Z" fill="#c4ccd6" stroke="#8a94a6" stroke-width="1"/><path d="M 952.0 408.0 Q 923.3 425.5 934.0 439.2 Z" fill="#c4ccd6" stroke="#8a94a6" stroke-width="1"/><path d="M 952.0 408.0 Q 951.2 374.4 934.0 376.8 Z" fill="#c4ccd6" stroke="#8a94a6" stroke-width="1"/><circle cx="952.0" cy="408.0" r="8" fill="#565c66"/><text x="952.0" y="472.0" text-anchor="middle" font-size="13" font-weight="800" fill="#0b0d10">FAN MOTOR</text><text x="952.0" y="486.0" text-anchor="middle" font-size="10" fill="#66707d">OFM</text><circle cx="903.0" cy="396.0" r="5.5" fill="#c9ced6" stroke="#11141a" stroke-width="1.5"/><text x="891.0" y="400.0" text-anchor="middle" font-size="11" font-weight="700" fill="#0b0d10">1</text><circle cx="903.0" cy="416.0" r="5.5" fill="#c9ced6" stroke="#11141a" stroke-width="1.5"/><text x="891.0" y="420.0" text-anchor="middle" font-size="11" font-weight="700" fill="#0b0d10">2</text></g><g data-part="XFMR"><rect x="240.0" y="566.0" width="140" height="56" rx="8" fill="#0f8a7e" fill-opacity="0.14" stroke="#0f8a7e" stroke-width="1.8"/><text x="310.0" y="590.0" text-anchor="middle" font-size="11.5" font-weight="800" fill="#0b3d38">FROM INDOOR UNIT</text><text x="310.0" y="606.0" text-anchor="middle" font-size="9.5" fill="#0f8a7e">24V control power</text><circle cx="274.0" cy="566.0" r="4.5" fill="#c9ced6" stroke="#11141a" stroke-width="1.3"/><text x="274.0" y="558.0" text-anchor="middle" font-size="8.5" font-weight="700" fill="#0b0d10">24V</text><circle cx="346.0" cy="566.0" r="4.5" fill="#c9ced6" stroke="#11141a" stroke-width="1.3"/><text x="346.0" y="558.0" text-anchor="middle" font-size="8.5" font-weight="700" fill="#0b0d10">C</text></g><rect x="24" y="738.0" width="1072" height="250" rx="12" fill="#f6f7f9" stroke="#e4e7ec" stroke-width="1"/><text x="40" y="762.0" font-size="14" font-weight="800" fill="#0b0d10">WHAT EACH WIRE DOES</text><text x="230" y="762.0" font-size="11" fill="#8a94a6">color = the real wire color printed on the unit’s diagram</text><line x1="44.0" y1="792.0" x2="74.0" y2="792.0" stroke="#1c1f26" stroke-width="5" stroke-linecap="round"/><text x="84.0" y="790.0" font-size="11" font-weight="700" fill="#0b0d10">BLACK</text><text x="84.0" y="804.0" font-size="10.5" fill="#4a5058">One leg of the 240-volt power feeding the unit</text><line x1="556.0" y1="792.0" x2="586.0" y2="792.0" stroke="#1c1f26" stroke-width="5" stroke-linecap="round"/><text x="596.0" y="790.0" font-size="11" font-weight="700" fill="#0b0d10">BLACK</text><text x="596.0" y="804.0" font-size="10.5" fill="#4a5058">The other leg of the 240-volt power</text><line x1="44.0" y1="819.0" x2="74.0" y2="819.0" stroke="#1c1f26" stroke-width="5" stroke-linecap="round"/><text x="84.0" y="817.0" font-size="11" font-weight="700" fill="#0b0d10">BLACK</text><text x="84.0" y="831.0" font-size="10.5" fill="#4a5058">Switched 240V from the contactor to the compressor</text><line x1="556.0" y1="819.0" x2="586.0" y2="819.0" stroke="#e6b400" stroke-width="5" stroke-linecap="round"/><text x="596.0" y="817.0" font-size="11" font-weight="700" fill="#0b0d10">YELLOW</text><text x="596.0" y="831.0" font-size="10.5" fill="#4a5058">240V to the compressor run winding</text><line x1="44.0" y1="846.0" x2="74.0" y2="846.0" stroke="#e6b400" stroke-width="5" stroke-linecap="round"/><text x="84.0" y="844.0" font-size="11" font-weight="700" fill="#0b0d10">YELLOW</text><text x="84.0" y="858.0" font-size="10.5" fill="#4a5058">Capacitor common ties to the run leg</text><line x1="556.0" y1="846.0" x2="586.0" y2="846.0" stroke="#2b6cd4" stroke-width="5" stroke-linecap="round"/><text x="596.0" y="844.0" font-size="11" font-weight="700" fill="#0b0d10">BLUE</text><text x="596.0" y="858.0" font-size="10.5" fill="#4a5058">Run capacitor to the compressor start winding</text><line x1="44.0" y1="873.0" x2="74.0" y2="873.0" stroke="#7a4a1e" stroke-width="5" stroke-linecap="round"/><text x="84.0" y="871.0" font-size="11" font-weight="700" fill="#0b0d10">BROWN</text><text x="84.0" y="885.0" font-size="10.5" fill="#4a5058">Run capacitor to the outdoor fan motor</text><line x1="556.0" y1="873.0" x2="586.0" y2="873.0" stroke="#e6b400" stroke-width="5" stroke-linecap="round"/><text x="596.0" y="871.0" font-size="11" font-weight="700" fill="#0b0d10">YELLOW</text><text x="596.0" y="885.0" font-size="10.5" fill="#4a5058">240V power to the outdoor fan motor</text><line x1="44.0" y1="900.0" x2="74.0" y2="900.0" stroke="#e6b400" stroke-width="5" stroke-linecap="round"/><text x="84.0" y="898.0" font-size="11" font-weight="700" fill="#0b0d10">YELLOW</text><text x="84.0" y="912.0" font-size="10.5" fill="#4a5058">24-volt &quot;turn on&quot; signal from indoors to the contactor</text><line x1="556.0" y1="900.0" x2="586.0" y2="900.0" stroke="#2b6cd4" stroke-width="5" stroke-linecap="round"/><text x="596.0" y="898.0" font-size="11" font-weight="700" fill="#0b0d10">BLUE</text><text x="596.0" y="912.0" font-size="10.5" fill="#4a5058">24-volt common back to the indoor unit</text></svg>