<svg xmlns="http://www.w3.org/2000/svg" width="1120" height="1188" viewBox="0 0 1120 1188" font-family="ui-sans-serif,system-ui,Arial,sans-serif"><rect x="0" y="0" width="1120" height="1188" fill="#ffffff"/><metadata data-conns="CAP/C|COMP/R;CAP/F|OFM/1;COMP/S|CAP/H;CONT/21|COMP/C;CONT/23b|COMP/R;CONT/COIL1|LPS/1;CTD/T2|CONT/COIL2;CTD/T3|XFMR/R;DTS/2|HPS/1;HPS/2|CTD/T1;L/L1|CONT/11;L/L2|CONT/23a;LLS/1|LPS/1;LLS/2|XFMR/C;LPS/2|DTS/1;OFM/2|CONT/23b"></metadata><rect x="24" y="116" width="1072" height="480" rx="14" fill="#fdf4f3"/><rect x="24" y="612" width="1072" height="252" rx="14" fill="#f0f8f6"/><text x="40" y="34" font-size="21" font-weight="800" fill="#0b0d10">Carrier 24ABB3 — how it’s wired</text><text x="40" y="53" font-size="12.5" fill="#7a8390">A beginner-friendly map of the real parts and how the wires connect them. The real manual is one tap away.</text><text x="44" y="138" font-size="14" font-weight="800" fill="#d92b1c">HIGH VOLTAGE · 240V</text><text x="214" y="138" font-size="11" fill="#b06a62">— the power that actually runs the compressor &amp; fan</text><text x="44" y="628" font-size="14" font-weight="800" fill="#0f8a7e">LOW VOLTAGE · 24V</text><text x="205" y="628" font-size="11" fill="#5a9089">— the small signal from inside that switches it on</text><path d="M 162.0 258.0 L 180.0 258.0 L 150.0 258.0 L 150.0 258.0 L 192.0 258.0 L 210.0 258.0" fill="none" stroke="#ffffff" stroke-width="7" opacity="0.95" stroke-linejoin="round" stroke-linecap="round"/><path data-conn="L/L1|CONT/11" d="M 162.0 258.0 L 180.0 258.0 L 150.0 258.0 L 150.0 258.0 L 192.0 258.0 L 210.0 258.0" fill="none" stroke="#d92b1c" stroke-width="3.4" stroke-linejoin="round" stroke-linecap="round"/><path d="M 162.0 288.0 L 190.0 288.0 L 185.0 288.0 L 185.0 288.0 L 182.0 288.0 L 210.0 288.0" fill="none" stroke="#ffffff" stroke-width="7" opacity="0.95" stroke-linejoin="round" stroke-linecap="round"/><path data-conn="L/L2|CONT/23a" d="M 162.0 288.0 L 190.0 288.0 L 185.0 288.0 L 185.0 288.0 L 182.0 288.0 L 210.0 288.0" fill="none" stroke="#39404c" stroke-width="3.4" stroke-linejoin="round" stroke-linecap="round"/><path d="M 398.0 258.0 L 436.0 258.0 L 511.0 258.0 L 511.0 212.0 L 861.0 212.0 L 899.0 212.0" fill="none" stroke="#ffffff" stroke-width="7" opacity="0.95" stroke-linejoin="round" stroke-linecap="round"/><path data-conn="CONT/21|COMP/C" d="M 398.0 258.0 L 436.0 258.0 L 511.0 258.0 L 511.0 212.0 L 861.0 212.0 L 899.0 212.0" fill="none" stroke="#1c1f26" stroke-width="3.4" stroke-linejoin="round" stroke-linecap="round"/><path d="M 398.0 276.0 L 446.0 276.0 L 541.3 276.0 L 541.3 228.0 L 851.0 228.0 L 899.0 228.0" fill="none" stroke="#ffffff" stroke-width="7" opacity="0.95" stroke-linejoin="round" stroke-linecap="round"/><path data-conn="CONT/23b|COMP/R" d="M 398.0 276.0 L 446.0 276.0 L 541.3 276.0 L 541.3 228.0 L 851.0 228.0 L 899.0 228.0" fill="none" stroke="#e6b400" stroke-width="3.4" stroke-linejoin="round" stroke-linecap="round"/><path d="M 899.0 268.0 L 841.0 268.0 L 664.9 268.0 L 664.9 307.0 L 591.5 307.0 L 591.5 365.0" fill="none" stroke="#ffffff" stroke-width="7" opacity="0.95" stroke-linejoin="round" stroke-linecap="round"/><path data-conn="COMP/S|CAP/H" d="M 899.0 268.0 L 841.0 268.0 L 664.9 268.0 L 664.9 307.0 L 591.5 307.0 L 591.5 365.0" fill="none" stroke="#2b6cd4" stroke-width="3.4" stroke-linejoin="round" stroke-linecap="round"/><path d="M 623.0 365.0 L 623.0 297.0 L 696.4 297.0 L 696.4 252.0 L 831.0 252.0 L 899.0 252.0" fill="none" stroke="#ffffff" stroke-width="7" opacity="0.95" stroke-linejoin="round" stroke-linecap="round"/><path data-conn="CAP/C|COMP/R" d="M 623.0 365.0 L 623.0 297.0 L 696.4 297.0 L 696.4 252.0 L 831.0 252.0 L 899.0 252.0" fill="none" stroke="#e6b400" stroke-width="3.4" stroke-linejoin="round" stroke-linecap="round"/><path d="M 654.5 365.0 L 654.5 347.0 L 750.2 347.0 L 750.2 440.0 L 887.0 440.0 L 905.0 440.0" fill="none" stroke="#ffffff" stroke-width="7" opacity="0.95" stroke-linejoin="round" stroke-linecap="round"/><path data-conn="CAP/F|OFM/1" d="M 654.5 365.0 L 654.5 347.0 L 750.2 347.0 L 750.2 440.0 L 887.0 440.0 L 905.0 440.0" fill="none" stroke="#7a4a1e" stroke-width="3.4" stroke-linejoin="round" stroke-linecap="round"/><path d="M 905.0 460.0 L 877.0 460.0 L 638.2 460.0 L 638.2 300.0 L 426.0 300.0 L 398.0 300.0" fill="none" stroke="#ffffff" stroke-width="7" opacity="0.95" stroke-linejoin="round" stroke-linecap="round"/><path data-conn="OFM/2|CONT/23b" d="M 905.0 460.0 L 877.0 460.0 L 638.2 460.0 L 638.2 300.0 L 426.0 300.0 L 398.0 300.0" fill="none" stroke="#e6b400" stroke-width="3.4" stroke-linejoin="round" stroke-linecap="round"/><path d="M 266.0 340.0 L 266.0 508.0 L 304.0 508.0 L 304.0 699.0 L 270.0 699.0 L 308.0 699.0" fill="none" stroke="#ffffff" stroke-width="7" opacity="0.95" stroke-linejoin="round" stroke-linecap="round"/><path data-conn="CONT/COIL1|LPS/1" d="M 266.0 340.0 L 266.0 508.0 L 304.0 508.0 L 304.0 699.0 L 270.0 699.0 L 308.0 699.0" fill="none" stroke="#e6b400" stroke-width="3.4" stroke-linejoin="round" stroke-linecap="round"/><path d="M 266.0 340.0 L 266.0 508.0 L 304.0 508.0 L 304.0 699.0 L 270.0 699.0 L 308.0 699.0" fill="none" stroke="#2b6cd4" stroke-width="3.4" stroke-dasharray="3 9" stroke-linejoin="round" stroke-linecap="round"/><path d="M 366.0 711.0 L 414.0 711.0 L 395.0 711.0 L 395.0 711.0 L 448.0 711.0 L 496.0 711.0" fill="none" stroke="#ffffff" stroke-width="7" opacity="0.95" stroke-linejoin="round" stroke-linecap="round"/><path data-conn="LPS/2|DTS/1" d="M 366.0 711.0 L 414.0 711.0 L 395.0 711.0 L 395.0 711.0 L 448.0 711.0 L 496.0 711.0" fill="none" stroke="#e6b400" stroke-width="3.4" stroke-linejoin="round" stroke-linecap="round"/><path d="M 366.0 711.0 L 414.0 711.0 L 395.0 711.0 L 395.0 711.0 L 448.0 711.0 L 496.0 711.0" fill="none" stroke="#e56fa0" stroke-width="3.4" stroke-dasharray="3 9" stroke-linejoin="round" stroke-linecap="round"/><path d="M 554.0 711.0 L 612.0 711.0 L 592.0 711.0 L 592.0 711.0 L 626.0 711.0 L 684.0 711.0" fill="none" stroke="#ffffff" stroke-width="7" opacity="0.95" stroke-linejoin="round" stroke-linecap="round"/><path data-conn="DTS/2|HPS/1" d="M 554.0 711.0 L 612.0 711.0 L 592.0 711.0 L 592.0 711.0 L 626.0 711.0 L 684.0 711.0" fill="none" stroke="#1c1f26" stroke-width="3.4" stroke-linejoin="round" stroke-linecap="round"/><path d="M 742.0 711.0 L 810.0 711.0 L 781.0 711.0 L 781.0 677.0 L 788.0 677.0 L 856.0 677.0" fill="none" stroke="#ffffff" stroke-width="7" opacity="0.95" stroke-linejoin="round" stroke-linecap="round"/><path data-conn="HPS/2|CTD/T1" d="M 742.0 711.0 L 810.0 711.0 L 781.0 711.0 L 781.0 677.0 L 788.0 677.0 L 856.0 677.0" fill="none" stroke="#2b6cd4" stroke-width="3.4" stroke-linejoin="round" stroke-linecap="round"/><path d="M 742.0 711.0 L 810.0 711.0 L 781.0 711.0 L 781.0 677.0 L 788.0 677.0 L 856.0 677.0" fill="none" stroke="#e56fa0" stroke-width="3.4" stroke-dasharray="3 9" stroke-linejoin="round" stroke-linecap="round"/><path d="M 856.0 702.0 L 838.0 702.0 L 824.4 702.0 L 824.4 508.0 L 338.0 508.0 L 338.0 340.0" fill="none" stroke="#ffffff" stroke-width="7" opacity="0.95" stroke-linejoin="round" stroke-linecap="round"/><path data-conn="CTD/T2|CONT/COIL2" d="M 856.0 702.0 L 838.0 702.0 L 824.4 702.0 L 824.4 508.0 L 338.0 508.0 L 338.0 340.0" fill="none" stroke="#7a3fd0" stroke-width="3.4" stroke-linejoin="round" stroke-linecap="round"/><path d="M 856.0 727.0 L 828.0 727.0 L 854.5 727.0 L 854.5 662.0 L 94.0 662.0 L 94.0 690.0" fill="none" stroke="#ffffff" stroke-width="7" opacity="0.95" stroke-linejoin="round" stroke-linecap="round"/><path data-conn="CTD/T3|XFMR/R" d="M 856.0 727.0 L 828.0 727.0 L 854.5 727.0 L 854.5 662.0 L 94.0 662.0 L 94.0 690.0" fill="none" stroke="#7a4a1e" stroke-width="3.4" stroke-linejoin="round" stroke-linecap="round"/><path d="M 856.0 727.0 L 828.0 727.0 L 854.5 727.0 L 854.5 662.0 L 94.0 662.0 L 94.0 690.0" fill="none" stroke="#e6b400" stroke-width="3.4" stroke-dasharray="3 9" stroke-linejoin="round" stroke-linecap="round"/><path d="M 512.0 827.0 L 474.0 827.0 L 450.0 827.0 L 450.0 723.0 L 270.0 723.0 L 308.0 723.0" fill="none" stroke="#ffffff" stroke-width="7" opacity="0.95" stroke-linejoin="round" stroke-linecap="round"/><path data-conn="LLS/1|LPS/1" d="M 512.0 827.0 L 474.0 827.0 L 450.0 827.0 L 450.0 723.0 L 270.0 723.0 L 308.0 723.0" fill="none" stroke="#1c1f26" stroke-width="3.4" stroke-linejoin="round" stroke-linecap="round"/><path d="M 556.0 827.0 L 604.0 827.0 L 890.2 827.0 L 890.2 642.0 L 166.0 642.0 L 166.0 690.0" fill="none" stroke="#ffffff" stroke-width="7" opacity="0.95" stroke-linejoin="round" stroke-linecap="round"/><path data-conn="LLS/2|XFMR/C" d="M 556.0 827.0 L 604.0 827.0 L 890.2 827.0 L 890.2 642.0 L 166.0 642.0 L 166.0 690.0" fill="none" stroke="#1c1f26" stroke-width="3.4" stroke-linejoin="round" stroke-linecap="round"/><g data-part="L"><rect x="44.0" y="196.0" width="118" height="104" rx="8" fill="#4a5058" stroke="#11141a" stroke-width="2.2"/><rect x="54.0" y="208.0" width="98" height="26" rx="3" fill="#2b2f37"/><rect x="94.0" y="212.0" width="18" height="18" rx="2" fill="#c9ced6" stroke="#11141a" stroke-width="1.4"/><text x="103.0" y="254.0" text-anchor="middle" font-size="13" font-weight="800" fill="#fff">DISCONNECT</text><text x="103.0" y="270.0" text-anchor="middle" font-size="9" fill="#c9ced6">pull to kill power</text><text x="103.0" y="186.0" text-anchor="middle" font-size="10" font-weight="700" fill="#0b0d10">240V from panel</text><line x1="89.0" y1="196.0" x2="89.0" y2="190.0" stroke="#d92b1c" stroke-width="3"/><line x1="117.0" y1="196.0" x2="117.0" y2="190.0" stroke="#d92b1c" stroke-width="3"/><circle cx="162.0" cy="258.0" r="7.5" fill="#c9ced6" stroke="#11141a" stroke-width="1.6"/><line x1="158.0" y1="258.0" x2="166.0" y2="258.0" stroke="#11141a" stroke-width="1.4"/><circle cx="162.0" cy="288.0" r="7.5" fill="#c9ced6" stroke="#11141a" stroke-width="1.6"/><line x1="158.0" y1="288.0" x2="166.0" y2="288.0" stroke="#11141a" stroke-width="1.4"/></g><g data-part="CONT"><rect x="210.0" y="176.0" width="188" height="164" rx="12" fill="#23262d" stroke="#0c0e12" stroke-width="2"/><rect x="213.0" y="179.0" width="182" height="158" rx="10" fill="none" stroke="#3a3f47" stroke-width="1"/><rect x="240.0" y="184.0" width="128" height="16" rx="4" fill="#8b929c" stroke="#5b616b" stroke-width="1"/><rect x="290.0" y="187.0" width="28" height="10" rx="3" fill="#c9ced6"/><text x="304.0" y="218.0" text-anchor="middle" font-size="15" font-weight="800" fill="#e8ecf2">CONTACTOR</text><text x="304.0" y="231.0" text-anchor="middle" font-size="8.5" fill="#9aa3b2">the switch that powers the unit on</text><text x="222.0" y="246.0" font-size="8" font-weight="700" fill="#8b929c">LINE</text><text x="386.0" y="246.0" text-anchor="end" font-size="8" font-weight="700" fill="#8b929c">LOAD</text><line x1="216.0" y1="258.0" x2="280.0" y2="258.0" stroke="#e8ecf2" stroke-width="2.6" stroke-linecap="round"/><circle cx="280.0" cy="258.0" r="3.2" fill="#e8ecf2"/><line x1="280.0" y1="258.0" x2="300.0" y2="246.0" stroke="#e8ecf2" stroke-width="2.6" stroke-linecap="round"/><circle cx="304.0" cy="258.0" r="3.2" fill="#e8ecf2"/><line x1="304.0" y1="258.0" x2="392.0" y2="258.0" stroke="#e8ecf2" stroke-width="2.6" stroke-linecap="round"/><text x="304.0" y="242.0" text-anchor="middle" font-size="7.5" fill="#9aa3b2">switched</text><line x1="216.0" y1="288.0" x2="392.0" y2="288.0" stroke="#e8ecf2" stroke-width="2.6" stroke-linecap="round"/><text x="304.0" y="300.0" text-anchor="middle" font-size="7.5" fill="#e0a24a">always hot (unswitched leg)</text><rect x="246.0" y="302.0" width="116" height="26" rx="6" fill="#0f8a7e" fill-opacity="0.20" stroke="#0f8a7e" stroke-width="1.5"/><text x="304.0" y="318.0" text-anchor="middle" font-size="9.5" font-weight="800" fill="#0f8a7e">24V COIL</text><path d="M 266.0 336.0 Q 272.0 332.0 278.0 336.0 Q 284.0 332.0 290.0 336.0 Q 296.0 332.0 302.0 336.0 Q 308.0 332.0 314.0 336.0 Q 320.0 332.0 326.0 336.0 Q 332.0 332.0 338.0 336.0" fill="none" stroke="#0f8a7e" stroke-width="1.8" opacity="0.7"/><line x1="292.0" y1="261.0" x2="304.0" y2="302.0" stroke="#0f8a7e" stroke-width="1.3" stroke-dasharray="3 3" opacity="0.8"/><circle cx="210.0" cy="258.0" r="7.5" fill="#c9ced6" stroke="#11141a" stroke-width="1.6"/><line x1="206.0" y1="258.0" x2="214.0" y2="258.0" stroke="#11141a" stroke-width="1.4"/><rect x="186.0" y="252.0" width="20.1" height="15.0" rx="3" fill="#ffffff" opacity="0.92"/><text x="196.0" y="262.0" text-anchor="middle" font-size="11" font-weight="700" fill="#0b0d10">L1</text><circle cx="210.0" cy="288.0" r="7.5" fill="#c9ced6" stroke="#11141a" stroke-width="1.6"/><line x1="206.0" y1="288.0" x2="214.0" y2="288.0" stroke="#11141a" stroke-width="1.4"/><rect x="186.0" y="282.0" width="20.1" height="15.0" rx="3" fill="#ffffff" opacity="0.92"/><text x="196.0" y="292.0" text-anchor="middle" font-size="11" font-weight="700" fill="#0b0d10">L2</text><circle cx="398.0" cy="258.0" r="7.5" fill="#c9ced6" stroke="#11141a" stroke-width="1.6"/><line x1="394.0" y1="258.0" x2="402.0" y2="258.0" stroke="#11141a" stroke-width="1.4"/><rect x="402.0" y="252.0" width="20.1" height="15.0" rx="3" fill="#ffffff" opacity="0.92"/><text x="412.0" y="262.0" text-anchor="middle" font-size="11" font-weight="700" fill="#0b0d10">T1</text><circle cx="398.0" cy="288.0" r="7.5" fill="#c9ced6" stroke="#11141a" stroke-width="1.6"/><line x1="394.0" y1="288.0" x2="402.0" y2="288.0" stroke="#11141a" stroke-width="1.4"/><rect x="402.0" y="282.0" width="20.1" height="15.0" rx="3" fill="#ffffff" opacity="0.92"/><text x="412.0" y="292.0" text-anchor="middle" font-size="11" font-weight="700" fill="#0b0d10">T2</text><rect x="259.0" y="332.0" width="14" height="16" rx="2" fill="#b9bfc9" stroke="#11141a" stroke-width="1.4"/><rect x="254.8" y="349.5" width="22.3" height="12.5" rx="3" fill="#ffffff" opacity="0.92"/><text x="266.0" y="357.0" text-anchor="middle" font-size="8.5" font-weight="700" fill="#0b0d10">24V</text><rect x="331.0" y="332.0" width="14" height="16" rx="2" fill="#b9bfc9" stroke="#11141a" stroke-width="1.4"/><rect x="332.3" y="349.5" width="11.4" height="12.5" rx="3" fill="#ffffff" opacity="0.92"/><text x="338.0" y="357.0" text-anchor="middle" font-size="8.5" font-weight="700" fill="#0b0d10">C</text></g><g data-part="COMP"><circle cx="954.0" cy="240.0" r="54" fill="#3a3f47" stroke="#11141a" stroke-width="2.6"/><circle cx="954.0" cy="240.0" r="46" fill="none" stroke="#565c66" stroke-width="1.5"/><text x="954.0" y="232.0" text-anchor="middle" font-size="15" font-weight="800" fill="#e8ecf2">COMPRESSOR</text><text x="954.0" y="248.0" text-anchor="middle" font-size="9" fill="#9aa3b2">pumps the</text><text x="954.0" y="260.0" text-anchor="middle" font-size="9" fill="#9aa3b2">refrigerant</text><circle cx="899.0" cy="212.0" r="5.5" fill="#c9ced6" stroke="#11141a" stroke-width="1.5"/><rect x="879.5" y="206.0" width="13.0" height="15.0" rx="3" fill="#ffffff" opacity="0.92"/><text x="886.0" y="216.0" text-anchor="middle" font-size="11" font-weight="700" fill="#0b0d10">C</text><circle cx="899.0" cy="240.0" r="5.5" fill="#c9ced6" stroke="#11141a" stroke-width="1.5"/><rect x="879.5" y="234.0" width="13.0" height="15.0" rx="3" fill="#ffffff" opacity="0.92"/><text x="886.0" y="244.0" text-anchor="middle" font-size="11" font-weight="700" fill="#0b0d10">R</text><circle cx="899.0" cy="268.0" r="5.5" fill="#c9ced6" stroke="#11141a" stroke-width="1.5"/><rect x="879.5" y="262.0" width="13.0" height="15.0" rx="3" fill="#ffffff" opacity="0.92"/><text x="886.0" y="272.0" text-anchor="middle" font-size="11" font-weight="700" fill="#0b0d10">S</text></g><g data-part="CAP"><rect x="560.0" y="380.0" width="126" height="98" rx="30" fill="#eef1f5" stroke="#11141a" stroke-width="2.2"/><text x="623.0" y="448.0" text-anchor="middle" font-size="12" font-weight="800" fill="#0b0d10">RUN CAPACITOR</text><text x="623.0" y="462.0" text-anchor="middle" font-size="8.5" fill="#66707d">helps the motors</text><text x="623.0" y="473.0" text-anchor="middle" font-size="8.5" fill="#66707d">start &amp; run smoothly</text><rect x="584.5" y="365.0" width="14" height="16" rx="2" fill="#b9bfc9" stroke="#11141a" stroke-width="1.4"/><rect x="574.4" y="337.0" width="34.2" height="15.0" rx="3" fill="#ffffff" opacity="0.92"/><text x="591.5" y="347.0" text-anchor="middle" font-size="11" font-weight="700" fill="#0b0d10">HERM</text><rect x="616.0" y="365.0" width="14" height="16" rx="2" fill="#b9bfc9" stroke="#11141a" stroke-width="1.4"/><rect x="616.5" y="337.0" width="13.0" height="15.0" rx="3" fill="#ffffff" opacity="0.92"/><text x="623.0" y="347.0" text-anchor="middle" font-size="11" font-weight="700" fill="#0b0d10">C</text><rect x="647.5" y="365.0" width="14" height="16" rx="2" fill="#b9bfc9" stroke="#11141a" stroke-width="1.4"/><rect x="640.9" y="337.0" width="27.1" height="15.0" rx="3" fill="#ffffff" opacity="0.92"/><text x="654.5" y="347.0" text-anchor="middle" font-size="11" font-weight="700" fill="#0b0d10">FAN</text></g><g data-part="OFM"><circle cx="954.0" cy="452.0" r="48" fill="#eef1f5" stroke="#11141a" stroke-width="2.3"/><path d="M 954.0 452.0 Q 983.5 468.1 990.0 452.0 Z" fill="#c4ccd6" stroke="#8a94a6" stroke-width="1"/><path d="M 954.0 452.0 Q 925.3 469.5 936.0 483.2 Z" fill="#c4ccd6" stroke="#8a94a6" stroke-width="1"/><path d="M 954.0 452.0 Q 953.2 418.4 936.0 420.8 Z" fill="#c4ccd6" stroke="#8a94a6" stroke-width="1"/><circle cx="954.0" cy="452.0" r="8" fill="#565c66"/><text x="954.0" y="516.0" text-anchor="middle" font-size="13" font-weight="800" fill="#0b0d10">FAN MOTOR</text><text x="954.0" y="530.0" text-anchor="middle" font-size="9.5" fill="#66707d">spins to cool the coil</text><circle cx="905.0" cy="440.0" r="5.5" fill="#c9ced6" stroke="#11141a" stroke-width="1.5"/><circle cx="905.0" cy="460.0" r="5.5" fill="#c9ced6" stroke="#11141a" stroke-width="1.5"/></g><g data-part="CTD"><rect x="856.0" y="664.0" width="92" height="76" rx="7" fill="#eaf3f1" stroke="#0f8a7e" stroke-width="2.2"/><text x="902.0" y="698.0" text-anchor="middle" font-size="12" font-weight="800" fill="#0f8a7e">CTD</text><text x="902.0" y="713.0" text-anchor="middle" font-size="8.5" fill="#4a8a82">time delay</text><circle cx="856.0" cy="677.0" r="4.5" fill="#c9ced6" stroke="#11141a" stroke-width="1.3"/><rect x="859.9" y="673.0" width="16.2" height="12.0" rx="3" fill="#ffffff" opacity="0.92"/><text x="868.0" y="680.0" text-anchor="middle" font-size="8" font-weight="700" fill="#0b0d10">T1</text><circle cx="856.0" cy="702.0" r="4.5" fill="#c9ced6" stroke="#11141a" stroke-width="1.3"/><rect x="859.9" y="698.0" width="16.2" height="12.0" rx="3" fill="#ffffff" opacity="0.92"/><text x="868.0" y="705.0" text-anchor="middle" font-size="8" font-weight="700" fill="#0b0d10">T2</text><circle cx="856.0" cy="727.0" r="4.5" fill="#c9ced6" stroke="#11141a" stroke-width="1.3"/><rect x="859.9" y="723.0" width="16.2" height="12.0" rx="3" fill="#ffffff" opacity="0.92"/><text x="868.0" y="730.0" text-anchor="middle" font-size="8" font-weight="700" fill="#0b0d10">T3</text></g><g data-part="LLS"><rect x="512.0" y="812.0" width="44" height="30" rx="4" fill="#fff" stroke="#0f8a7e" stroke-width="2.2"/><line x1="512.0" y1="827.0" x2="556.0" y2="827.0" stroke="#0f8a7e" stroke-width="1.4"/><text x="534.0" y="805.0" text-anchor="middle" font-size="10.5" font-weight="800" fill="#0b0d10">LLS</text><circle cx="512.0" cy="827.0" r="4.5" fill="#c9ced6" stroke="#11141a" stroke-width="1.3"/><circle cx="556.0" cy="827.0" r="4.5" fill="#c9ced6" stroke="#11141a" stroke-width="1.3"/></g><g data-part="XFMR"><rect x="60.0" y="690.0" width="140" height="56" rx="8" fill="#0f8a7e" fill-opacity="0.14" stroke="#0f8a7e" stroke-width="1.8"/><text x="130.0" y="714.0" text-anchor="middle" font-size="11.5" font-weight="800" fill="#0b3d38">FROM INDOOR UNIT</text><text x="130.0" y="730.0" text-anchor="middle" font-size="9.5" fill="#0f8a7e">24V control power</text><circle cx="94.0" cy="690.0" r="4.5" fill="#c9ced6" stroke="#11141a" stroke-width="1.3"/><rect x="82.8" y="674.5" width="22.3" height="12.5" rx="3" fill="#ffffff" opacity="0.92"/><text x="94.0" y="682.0" text-anchor="middle" font-size="8.5" font-weight="700" fill="#0b0d10">24V</text><circle cx="166.0" cy="690.0" r="4.5" fill="#c9ced6" stroke="#11141a" stroke-width="1.3"/><rect x="160.3" y="674.5" width="11.4" height="12.5" rx="3" fill="#ffffff" opacity="0.92"/><text x="166.0" y="682.0" text-anchor="middle" font-size="8.5" font-weight="700" fill="#0b0d10">C</text></g><g data-part="LPS"><rect x="308.0" y="690.0" width="58" height="42" rx="7" fill="#fff" stroke="#11141a" stroke-width="2"/><circle cx="328.0" cy="715.0" r="2.4" fill="#11141a"/><line x1="328.0" y1="715.0" x2="346.0" y2="705.0" stroke="#11141a" stroke-width="2.2"/><circle cx="346.0" cy="715.0" r="2.4" fill="#11141a"/><text x="337.0" y="683.0" text-anchor="middle" font-size="11.5" font-weight="800" fill="#0b0d10">LPS</text><text x="337.0" y="745.0" text-anchor="middle" font-size="9" fill="#66707d">Low-Pressure LPS</text><circle cx="308.0" cy="711.0" r="4.5" fill="#c9ced6" stroke="#11141a" stroke-width="1.3"/><circle cx="366.0" cy="711.0" r="4.5" fill="#c9ced6" stroke="#11141a" stroke-width="1.3"/></g><g data-part="DTS"><rect x="496.0" y="690.0" width="58" height="42" rx="7" fill="#fff" stroke="#11141a" stroke-width="2"/><circle cx="516.0" cy="715.0" r="2.4" fill="#11141a"/><line x1="516.0" y1="715.0" x2="534.0" y2="705.0" stroke="#11141a" stroke-width="2.2"/><circle cx="534.0" cy="715.0" r="2.4" fill="#11141a"/><text x="525.0" y="683.0" text-anchor="middle" font-size="11.5" font-weight="800" fill="#0b0d10">DTS</text><text x="525.0" y="745.0" text-anchor="middle" font-size="9" fill="#66707d">Discharge-Temp DTS</text><circle cx="496.0" cy="711.0" r="4.5" fill="#c9ced6" stroke="#11141a" stroke-width="1.3"/><circle cx="554.0" cy="711.0" r="4.5" fill="#c9ced6" stroke="#11141a" stroke-width="1.3"/></g><g data-part="HPS"><rect x="684.0" y="690.0" width="58" height="42" rx="7" fill="#fff" stroke="#11141a" stroke-width="2"/><circle cx="704.0" cy="715.0" r="2.4" fill="#11141a"/><line x1="704.0" y1="715.0" x2="722.0" y2="705.0" stroke="#11141a" stroke-width="2.2"/><circle cx="722.0" cy="715.0" r="2.4" fill="#11141a"/><text x="713.0" y="683.0" text-anchor="middle" font-size="11.5" font-weight="800" fill="#0b0d10">HPS</text><text x="713.0" y="745.0" text-anchor="middle" font-size="9" fill="#66707d">High-Pressure HPS</text><circle cx="684.0" cy="711.0" r="4.5" fill="#c9ced6" stroke="#11141a" stroke-width="1.3"/><circle cx="742.0" cy="711.0" r="4.5" fill="#c9ced6" stroke="#11141a" stroke-width="1.3"/></g><line x1="398.0" y1="276.0" x2="398.0" y2="300.0" stroke="#11141a" stroke-width="2"/><circle cx="398.0" cy="288.0" r="5.5" fill="#11141a" stroke="#ffffff" stroke-width="1.5"/><line x1="899.0" y1="228.0" x2="899.0" y2="252.0" stroke="#11141a" stroke-width="2"/><circle cx="899.0" cy="240.0" r="5.5" fill="#11141a" stroke="#ffffff" stroke-width="1.5"/><line x1="308.0" y1="699.0" x2="308.0" y2="723.0" stroke="#11141a" stroke-width="2"/><circle cx="308.0" cy="711.0" r="5.5" fill="#11141a" stroke="#ffffff" stroke-width="1.5"/><circle cx="171.0" cy="258.0" r="8.5" fill="#ffffff" stroke="#d92b1c" stroke-width="2"/><text x="171.0" y="261.5" text-anchor="middle" font-size="10" font-weight="800" fill="#0b0d10">1</text><circle cx="176.0" cy="288.0" r="8.5" fill="#ffffff" stroke="#39404c" stroke-width="2"/><text x="176.0" y="291.5" text-anchor="middle" font-size="10" font-weight="800" fill="#0b0d10">2</text><circle cx="686.0" cy="212.0" r="8.5" fill="#ffffff" stroke="#1c1f26" stroke-width="2"/><text x="686.0" y="215.5" text-anchor="middle" font-size="10" font-weight="800" fill="#0b0d10">3</text><circle cx="696.1" cy="248.0" r="8.5" fill="#ffffff" stroke="#e6b400" stroke-width="2"/><text x="696.1" y="251.5" text-anchor="middle" font-size="10" font-weight="800" fill="#0b0d10">4</text><circle cx="752.9" cy="268.0" r="8.5" fill="#ffffff" stroke="#2b6cd4" stroke-width="2"/><text x="752.9" y="271.5" text-anchor="middle" font-size="10" font-weight="800" fill="#0b0d10">5</text><circle cx="763.7" cy="232.0" r="8.5" fill="#ffffff" stroke="#e6b400" stroke-width="2"/><text x="763.7" y="235.5" text-anchor="middle" font-size="10" font-weight="800" fill="#0b0d10">6</text><circle cx="818.6" cy="440.0" r="8.5" fill="#ffffff" stroke="#7a4a1e" stroke-width="2"/><text x="818.6" y="443.5" text-anchor="middle" font-size="10" font-weight="800" fill="#0b0d10">7</text><circle cx="757.6" cy="460.0" r="8.5" fill="#ffffff" stroke="#e6b400" stroke-width="2"/><text x="757.6" y="463.5" text-anchor="middle" font-size="10" font-weight="800" fill="#0b0d10">8</text><circle cx="304.0" cy="603.5" r="8.5" fill="#ffffff" stroke="#e6b400" stroke-width="2"/><text x="304.0" y="607.0" text-anchor="middle" font-size="10" font-weight="800" fill="#0b0d10">9</text><circle cx="421.5" cy="711.0" r="8.5" fill="#ffffff" stroke="#e6b400" stroke-width="2"/><text x="421.5" y="714.5" text-anchor="middle" font-size="10" font-weight="800" fill="#0b0d10">10</text><circle cx="583.0" cy="711.0" r="8.5" fill="#ffffff" stroke="#1c1f26" stroke-width="2"/><text x="583.0" y="714.5" text-anchor="middle" font-size="10" font-weight="800" fill="#0b0d10">11</text><circle cx="776.0" cy="711.0" r="8.5" fill="#ffffff" stroke="#2b6cd4" stroke-width="2"/><text x="776.0" y="714.5" text-anchor="middle" font-size="10" font-weight="800" fill="#0b0d10">12</text><circle cx="581.2" cy="508.0" r="8.5" fill="#ffffff" stroke="#7a3fd0" stroke-width="2"/><text x="581.2" y="511.5" text-anchor="middle" font-size="10" font-weight="800" fill="#0b0d10">13</text><circle cx="474.2" cy="662.0" r="8.5" fill="#ffffff" stroke="#7a4a1e" stroke-width="2"/><text x="474.2" y="665.5" text-anchor="middle" font-size="10" font-weight="800" fill="#0b0d10">14</text><circle cx="360.0" cy="723.0" r="8.5" fill="#ffffff" stroke="#1c1f26" stroke-width="2"/><text x="360.0" y="726.5" text-anchor="middle" font-size="10" font-weight="800" fill="#0b0d10">15</text><circle cx="528.1" cy="642.0" r="8.5" fill="#ffffff" stroke="#1c1f26" stroke-width="2"/><text x="528.1" y="645.5" text-anchor="middle" font-size="10" font-weight="800" fill="#0b0d10">16</text><rect x="24" y="896.0" width="1072" height="288" rx="12" fill="#f6f7f9" stroke="#e4e7ec" stroke-width="1"/><line x1="772" y1="912.0" x2="772" y2="1172.0" stroke="#e0e4e9" stroke-width="1"/><text x="40" y="920.0" font-size="14" font-weight="800" fill="#0b0d10">WHAT EACH WIRE DOES</text><text x="234" y="920.0" font-size="10" fill="#8a94a6">match a wire’s number on the drawing · ● = wires joined</text><circle cx="48.0" cy="945.0" r="8" fill="#ffffff" stroke="#d92b1c" stroke-width="2"/><text x="48.0" y="948.5" text-anchor="middle" font-size="10" font-weight="800" fill="#0b0d10">1</text><line x1="62.0" y1="945.0" x2="86.0" y2="945.0" stroke="#d92b1c" stroke-width="5" stroke-linecap="round"/><text x="96.0" y="949.0" font-size="9.5" fill="#333a42">One leg of the 240-volt power to the contactor.</text><circle cx="414.0" cy="945.0" r="8" fill="#ffffff" stroke="#39404c" stroke-width="2"/><text x="414.0" y="948.5" text-anchor="middle" font-size="10" font-weight="800" fill="#0b0d10">2</text><line x1="428.0" y1="945.0" x2="452.0" y2="945.0" stroke="#39404c" stroke-width="5" stroke-linecap="round"/><text x="462.0" y="949.0" font-size="9.5" fill="#333a42">Second leg of the 240-volt power to the contactor.</text><circle cx="48.0" cy="969.0" r="8" fill="#ffffff" stroke="#1c1f26" stroke-width="2"/><text x="48.0" y="972.5" text-anchor="middle" font-size="10" font-weight="800" fill="#0b0d10">3</text><line x1="62.0" y1="969.0" x2="86.0" y2="969.0" stroke="#1c1f26" stroke-width="5" stroke-linecap="round"/><text x="96.0" y="973.0" font-size="9.5" fill="#333a42">Contactor load leg powers the compressor common.</text><circle cx="414.0" cy="969.0" r="8" fill="#ffffff" stroke="#e6b400" stroke-width="2"/><text x="414.0" y="972.5" text-anchor="middle" font-size="10" font-weight="800" fill="#0b0d10">4</text><line x1="428.0" y1="969.0" x2="452.0" y2="969.0" stroke="#e6b400" stroke-width="5" stroke-linecap="round"/><text x="462.0" y="973.0" font-size="9.5" fill="#333a42">Contactor load leg powers the compressor run terminal.</text><circle cx="48.0" cy="993.0" r="8" fill="#ffffff" stroke="#2b6cd4" stroke-width="2"/><text x="48.0" y="996.5" text-anchor="middle" font-size="10" font-weight="800" fill="#0b0d10">5</text><line x1="62.0" y1="993.0" x2="86.0" y2="993.0" stroke="#2b6cd4" stroke-width="5" stroke-linecap="round"/><text x="96.0" y="997.0" font-size="9.5" fill="#333a42">Compressor start winding to the run-capacitor terminal.</text><circle cx="414.0" cy="993.0" r="8" fill="#ffffff" stroke="#e6b400" stroke-width="2"/><text x="414.0" y="996.5" text-anchor="middle" font-size="10" font-weight="800" fill="#0b0d10">6</text><line x1="428.0" y1="993.0" x2="452.0" y2="993.0" stroke="#e6b400" stroke-width="5" stroke-linecap="round"/><text x="462.0" y="997.0" font-size="9.5" fill="#333a42">Run-capacitor common tied to compressor run terminal.</text><circle cx="48.0" cy="1017.0" r="8" fill="#ffffff" stroke="#7a4a1e" stroke-width="2"/><text x="48.0" y="1020.5" text-anchor="middle" font-size="10" font-weight="800" fill="#0b0d10">7</text><line x1="62.0" y1="1017.0" x2="86.0" y2="1017.0" stroke="#7a4a1e" stroke-width="5" stroke-linecap="round"/><text x="96.0" y="1021.0" font-size="9.5" fill="#333a42">Run-capacitor fan terminal powers the outdoor fan motor.</text><circle cx="414.0" cy="1017.0" r="8" fill="#ffffff" stroke="#e6b400" stroke-width="2"/><text x="414.0" y="1020.5" text-anchor="middle" font-size="10" font-weight="800" fill="#0b0d10">8</text><line x1="428.0" y1="1017.0" x2="452.0" y2="1017.0" stroke="#e6b400" stroke-width="5" stroke-linecap="round"/><text x="462.0" y="1021.0" font-size="9.5" fill="#333a42">Outdoor fan motor return to the contactor load leg.</text><circle cx="48.0" cy="1041.0" r="8" fill="#ffffff" stroke="#e6b400" stroke-width="2"/><text x="48.0" y="1044.5" text-anchor="middle" font-size="10" font-weight="800" fill="#0b0d10">9</text><line x1="62.0" y1="1041.0" x2="86.0" y2="1041.0" stroke="#e6b400" stroke-width="5" stroke-linecap="round"/><line x1="62.0" y1="1041.0" x2="86.0" y2="1041.0" stroke="#2b6cd4" stroke-width="5" stroke-dasharray="3 8" stroke-linecap="round"/><text x="96.0" y="1045.0" font-size="9.5" fill="#333a42">24-volt path from contactor coil to low-pressure safety…</text><circle cx="414.0" cy="1041.0" r="8" fill="#ffffff" stroke="#e6b400" stroke-width="2"/><text x="414.0" y="1044.5" text-anchor="middle" font-size="10" font-weight="800" fill="#0b0d10">10</text><line x1="428.0" y1="1041.0" x2="452.0" y2="1041.0" stroke="#e6b400" stroke-width="5" stroke-linecap="round"/><line x1="428.0" y1="1041.0" x2="452.0" y2="1041.0" stroke="#e56fa0" stroke-width="5" stroke-dasharray="3 8" stroke-linecap="round"/><text x="462.0" y="1045.0" font-size="9.5" fill="#333a42">Low-pressure switch in series to discharge-temp switch.</text><circle cx="48.0" cy="1065.0" r="8" fill="#ffffff" stroke="#1c1f26" stroke-width="2"/><text x="48.0" y="1068.5" text-anchor="middle" font-size="10" font-weight="800" fill="#0b0d10">11</text><line x1="62.0" y1="1065.0" x2="86.0" y2="1065.0" stroke="#1c1f26" stroke-width="5" stroke-linecap="round"/><text x="96.0" y="1069.0" font-size="9.5" fill="#333a42">Discharge-temp switch in series to high-pressure switch.</text><circle cx="414.0" cy="1065.0" r="8" fill="#ffffff" stroke="#2b6cd4" stroke-width="2"/><text x="414.0" y="1068.5" text-anchor="middle" font-size="10" font-weight="800" fill="#0b0d10">12</text><line x1="428.0" y1="1065.0" x2="452.0" y2="1065.0" stroke="#2b6cd4" stroke-width="5" stroke-linecap="round"/><line x1="428.0" y1="1065.0" x2="452.0" y2="1065.0" stroke="#e56fa0" stroke-width="5" stroke-dasharray="3 8" stroke-linecap="round"/><text x="462.0" y="1069.0" font-size="9.5" fill="#333a42">High-pressure switch to the compressor time-delay input.</text><circle cx="48.0" cy="1089.0" r="8" fill="#ffffff" stroke="#7a3fd0" stroke-width="2"/><text x="48.0" y="1092.5" text-anchor="middle" font-size="10" font-weight="800" fill="#0b0d10">13</text><line x1="62.0" y1="1089.0" x2="86.0" y2="1089.0" stroke="#7a3fd0" stroke-width="5" stroke-linecap="round"/><text x="96.0" y="1093.0" font-size="9.5" fill="#333a42">Time-delay output energizes the contactor coil.</text><circle cx="414.0" cy="1089.0" r="8" fill="#ffffff" stroke="#7a4a1e" stroke-width="2"/><text x="414.0" y="1092.5" text-anchor="middle" font-size="10" font-weight="800" fill="#0b0d10">14</text><line x1="428.0" y1="1089.0" x2="452.0" y2="1089.0" stroke="#7a4a1e" stroke-width="5" stroke-linecap="round"/><line x1="428.0" y1="1089.0" x2="452.0" y2="1089.0" stroke="#e6b400" stroke-width="5" stroke-dasharray="3 8" stroke-linecap="round"/><text x="462.0" y="1093.0" font-size="9.5" fill="#333a42">24-volt hot from the transformer to the time-delay.</text><circle cx="48.0" cy="1113.0" r="8" fill="#ffffff" stroke="#1c1f26" stroke-width="2"/><text x="48.0" y="1116.5" text-anchor="middle" font-size="10" font-weight="800" fill="#0b0d10">15</text><line x1="62.0" y1="1113.0" x2="86.0" y2="1113.0" stroke="#1c1f26" stroke-width="5" stroke-linecap="round"/><text x="96.0" y="1117.0" font-size="9.5" fill="#333a42">Liquid-line solenoid tied into the safety string.</text><circle cx="414.0" cy="1113.0" r="8" fill="#ffffff" stroke="#1c1f26" stroke-width="2"/><text x="414.0" y="1116.5" text-anchor="middle" font-size="10" font-weight="800" fill="#0b0d10">16</text><line x1="428.0" y1="1113.0" x2="452.0" y2="1113.0" stroke="#1c1f26" stroke-width="5" stroke-linecap="round"/><text x="462.0" y="1117.0" font-size="9.5" fill="#333a42">Liquid-line solenoid return toward transformer common.</text><text x="792" y="920.0" font-size="14" font-weight="800" fill="#0b0d10">WHAT THE LETTERS MEAN</text><text x="792" y="948.0" font-size="10.5" font-weight="800" fill="#0f5a52">L1 / L2</text><text x="890" y="948.0" font-size="10" fill="#4a5058">the two 240-volt power legs in</text><text x="792" y="972.0" font-size="10.5" font-weight="800" fill="#0f5a52">T1 / T2</text><text x="890" y="972.0" font-size="10" fill="#4a5058">power leaving the contactor</text><text x="792" y="996.0" font-size="10.5" font-weight="800" fill="#0f5a52">C · R · S</text><text x="890" y="996.0" font-size="10" fill="#4a5058">compressor: Common / Run / Start</text><text x="792" y="1020.0" font-size="10.5" font-weight="800" fill="#0f5a52">HERM</text><text x="890" y="1020.0" font-size="10" fill="#4a5058">capacitor → compressor (“hermetic”)</text><text x="792" y="1044.0" font-size="10.5" font-weight="800" fill="#0f5a52">FAN</text><text x="890" y="1044.0" font-size="10" fill="#4a5058">capacitor → the fan motor</text><text x="792" y="1068.0" font-size="10.5" font-weight="800" fill="#0f5a52">LPS · HPS</text><text x="890" y="1068.0" font-size="10" fill="#4a5058">low / high-pressure safety switch</text><text x="792" y="1092.0" font-size="10.5" font-weight="800" fill="#0f5a52">DTS · CTD</text><text x="890" y="1092.0" font-size="10" fill="#4a5058">discharge-temp switch · time-delay</text><text x="792" y="1122.0" font-size="9.5" font-style="italic" fill="#8a94a6">“C” = Common everywhere — but a different wire each place.</text></svg>